# xmcd
#
# Track frame offsets: 
#        150
#        21057
#        34322
#        57307
#        71202
#        89720
#        113222
#        124950
#        140090
#        153807
#        169312
#
# Disc length: 2530 seconds
#
# Revision: 0
# Processed by: cddbd v1.4PL0 Copyright (c) Steve Scherf et al.
# Submitted via: ExactAudioCopy v0.95a3
#
DISCID=a309e00b
DTITLE=Omar And The Howlers - Monkey Land
DYEAR=1990
DGENRE=Blues
TTITLE0=Monkey Land
TTITLE1=Tonight I Think Of You
TTITLE2=Big Town Shakedown
TTITLE3=She's A Woman
TTITLE4=Fire In The Jungle
TTITLE5=Night Shadows
TTITLE6=Modern Man
TTITLE7=Loud Mouth Woman
TTITLE8=Dirty People
TTITLE9=Ding Dong Clock
TTITLE10=Next Big Thing
EXTD=
EXTT0=
EXTT1=
EXTT2=
EXTT3=
EXTT4=
EXTT5=
EXTT6=
EXTT7=
EXTT8=
EXTT9=
EXTT10=
PLAYORDER=
